<svg data-v-0dd9719b="" version="1.0" xmlns="http://www.w3.org/2000/svg" xmlns:xlink="http://www.w3.org/1999/xlink" width="100%" height="100%" viewBox="0 0 340.000000 250.000000" preserveAspectRatio="xMidYMid meet" color-interpolation-filters="sRGB" style="margin: auto;"> <rect data-v-0dd9719b="" x="0" y="0" width="100%" height="100%" fill="#fff" fill-opacity="1" class="background"></rect> <rect data-v-0dd9719b="" x="0" y="0" width="100%" height="100%" fill="url(#watermark)" fill-opacity="1" class="watermarklayer"></rect> <g data-v-0dd9719b="" fill="#333" class="icon-text-wrapper icon-svg-group iconsvg" transform="translate(46.58000183105469,92.6413803100586)"><g class="iconsvg-imagesvg" transform="translate(0,0)"><g><rect fill="#333" fill-opacity="0" stroke-width="2" x="0" y="0" width="60.00000000000001" height="64.7172395940072" class="image-rect"></rect> <svg x="0" y="0" width="60.00000000000001" height="64.7172395940072" filtersec="colorsb6138528129" class="image-svg-svg primary" style="overflow: visible;"><svg xmlns="http://www.w3.org/2000/svg" viewBox="-0.009205232374370098 -0.07867182046175003 169.2021942138672 182.50457763671875"><path d="M.13 52.18c0-3.15.06-6.3 0-9.44a2.61 2.61 0 0 1 1.49-2.66q17.14-9.85 34.28-19.77C41.72 17 47.56 13.62 53.35 10.2a2.58 2.58 0 0 1 3 0q37.47 21.71 75 43.35c.46.27 1.23.38 1.24 1s-.82.83-1.33 1.12c-6.71 3.9-13.45 7.77-20.15 11.71a2.31 2.31 0 0 1-2.69 0q-26.08-15.17-52.2-30.27a2.33 2.33 0 0 0-2.7 0Q39.28 45.4 25 53.58a2.76 2.76 0 0 0-1.6 2.78c.06 6.17 0 12.34 0 18.51.03 2.13-.04 2.13-1.8 1.13-6.67-3.85-13.34-7.73-20-11.53A2.46 2.46 0 0 1 .11 62c.07-3.28.02-6.55.02-9.82z" fill="#f26626"></path><path d="M169.17 63v29.63a3 3 0 0 1-1.71 3.09q-33.13 19.05-66.22 38.19c-2.94 1.69-5.9 3.35-8.8 5.11-1.29.79-1.53.4-1.53-.92v-23.89a2.2 2.2 0 0 1 1.39-2.13c16.24-9.36 32.41-18.88 48.77-28 3.63-2 5.08-4.13 4.9-8.38-.39-9.37-.17-18.76-.07-28.14a3.81 3.81 0 0 0-2.27-3.89c-5.29-2.92-10.49-6-15.73-9-1.68-1-1.68-1 .07-2 6.67-3.86 13.35-7.71 20-11.61a2.63 2.63 0 0 1 3-.08q8.44 5 17 9.81a2.33 2.33 0 0 1 1.15 2.46q.03 14.81.05 29.75z" fill="#f26626"></path><path d="M61.53 105.87v29.82a2.77 2.77 0 0 0 1.57 2.79q14.15 8.09 28.2 16.31a2.87 2.87 0 0 0 3.35 0c5.36-3.19 10.81-6.21 16.17-9.39 1.49-.89 1.73-.47 1.73 1q-.06 11.76 0 23.52a2.23 2.23 0 0 1-1.26 2.22q-8.69 4.95-17.32 10a2 2 0 0 1-2.36-.22q-20-11.6-40.06-23.15c-4-2.29-7.89-4.6-11.87-6.83a2.5 2.5 0 0 1-1.46-2.48q.06-43.44 0-86.87c0-1.52.22-1.87 1.66-1q10.05 5.91 20.19 11.68a2.63 2.63 0 0 1 1.5 2.64q-.08 14.95-.04 29.96z" fill="#f26626"></path><path d="M23.44 105.69v10.37c0 1.39-.43 1.45-1.5.82q-10.32-6-20.69-11.93A2.29 2.29 0 0 1 0 102.7V82.33c0-1.55.44-1.66 1.71-.92q10.14 6 20.35 11.77a2.31 2.31 0 0 1 1.39 2.32c-.08 3.4 0 6.79 0 10.19zM134.81 11.66c-3.57 2.09-7 4.08-10.37 6-3.9 2.26-7.82 4.46-11.7 6.74a2 2 0 0 1-2.33 0q-8.85-5.2-17.79-10.27c-1.14-.65-1.53-1-.06-1.86 6.92-3.92 13.8-7.92 20.68-11.91a1.82 1.82 0 0 1 2.05-.22l18.87 11c.16.15.3.27.65.52zM127.26 162.63v-18.18-7.22a2 2 0 0 1 1.14-2.06c5.85-3.33 11.65-6.72 17.46-10.09 1.68-1 1.79-.92 1.79 1v23.33c0 .88 0 1.67-.94 2.21-6.17 3.51-12.31 7.07-18.46 10.6a7.33 7.33 0 0 1-.99.41z" fill="#fdde1a"></path></svg></svg> <!----></g></g> <g transform="translate(67,22.41361904144287)"><g data-gra="path-name" fill-rule="" class="tp-name iconsvg-namesvg"><g transform="scale(1)"><g><path d="M12.95-19.56L19.47-19.78 18.47-1.08 11.24-0.41 7.38-10.43 6.77-0.22 0.57-0.22 1.06-19.78 7.96-20.11 12.73-10.18 12.95-19.56ZM20.69-19.04L28.03-19.43 26.52-0.63 20.69-0.33 20.69-19.04ZM41.24-19.56L47.75-19.78 46.76-1.08 39.53-0.41 35.66-10.43 35.06-0.22 28.85-0.22 29.34-19.78 36.24-20.11 41.02-10.18 41.24-19.56ZM61.12-19.56L67.63-19.78 66.64-1.08 59.41-0.41 55.54-10.43 54.94-0.22 48.73-0.22 49.23-19.78 56.12-20.11 60.9-10.18 61.12-19.56ZM80.52-19.76L85.9-1.19 79.05-0.3 78.22-3.42 75.08-3.42 74.39-0.3 67.35-0.99 72.84-19.37 80.52-19.76ZM75.66-7.64L77.73-7.64 76.68-12.44 75.66-7.64ZM98.44-19.56L104.95-19.78 103.95-1.08 96.73-0.41 92.86-10.43 92.26-0.22 86.05-0.22 86.54-19.78 93.44-20.11 98.22-10.18 98.44-19.56ZM117.83-19.76L123.21-1.19 116.37-0.3 115.54-3.42 112.4-3.42 111.71-0.3 104.67-0.99 110.16-19.37 117.83-19.76ZM112.98-7.64L115.05-7.64 114-12.44 112.98-7.64ZM135.76-19.56L142.27-19.78 141.27-1.08 134.04-0.41 130.18-10.43 129.57-0.22 123.37-0.22 123.86-19.78 130.76-20.11 135.53-10.18 135.76-19.56ZM155.64-19.56L162.15-19.78 161.15-1.08 153.93-0.41 150.06-10.43 149.46-0.22 143.25-0.22 143.74-19.78 150.64-20.11 155.42-10.18 155.64-19.56ZM175.03-19.76L180.41-1.19 173.57-0.3 172.74-3.42 169.6-3.42 168.91-0.3 161.87-0.99 167.36-19.37 175.03-19.76ZM170.18-7.64L172.25-7.64 171.2-12.44 170.18-7.64Z" transform="translate(-0.5699999928474426, 20.110000610351562)"></path></g> <!----> <!----> <!----> <!----> <!----> <!----> <!----></g></g> <!----></g></g><defs v-gra="od"></defs></svg>